# xmcd
#
# Track frame offsets: 
#        150
#        16276
#        29618
#        45278
#        66733
#        85020
#
# Disc length: 1324 seconds
#
# Revision: 0
# Processed by: cddbd v1.5.2PL0 Copyright (c) Steve Scherf et al.
# Submitted via: ExactAudioCopyFreeDBPlugin 1.0
#
DISCID=46052a06
DTITLE=Space Lady, The - The Space Lady's Greatest Hits [bonus disc]
DYEAR=1900
DGENRE=
TTITLE0=All Shook Up
TTITLE1=Slapback Boomerang
TTITLE2=Puttin'On The Ritz
TTITLE3=Radar Love
TTITLE4=20th Century Fox
TTITLE5=Shakin'All Over
EXTD=
EXTT0=
EXTT1=
EXTT2=
EXTT3=
EXTT4=
EXTT5=
PLAYORDER=
